<svg version="1.1" id="Слой_1" xmlns="http://www.w3.org/2000/svg" x="0" y="0" viewBox="0 0 270.3 305" xml:space="preserve"><path d="M264.4 288.1L155.6 7.8c-1.5-3.7-3.8-5.6-7.1-5.6-1.3 0-3.3.1-6.1.2-2.8.2-5.8.4-9 .7-3.3.3-6.6.7-10.1 1.1-3.5.4-6.6.9-9.2 1.3-3.1.5-4.6 2-4.6 4.4 0 .5.2 1.4.5 2.7l5.1 14.2L3.2 294.9c-.2.3-.2.7-.2 1.2 0 1.6 1.3 2.4 3.9 2.4 4.7 0 8.9-.1 12.7-.2 3.7-.2 7.1-.4 10-.7 2.3-.3 3.7-1.4 4.4-3.2l37.6-101.3 10.9-29.5h.1l41.9-112.3 46.4 121.1H107l-7.5 20.3 78.7-1.3L218 294.9c1 2.4 2.8 3.7 5.6 3.7 1.3 0 3.4 0 6.3-.1s6.1-.2 9.6-.5c3.5-.2 7.1-.6 10.7-1 3.7-.4 7-.9 9.9-1.3 3.3-.5 4.9-2.1 4.9-4.9.2-.5-.1-1.4-.6-2.7z" fill="#bc4504"/></svg>