<?xml version="1.0" encoding="utf-8"?>
<!-- Generator: Adobe Illustrator 22.1.0, SVG Export Plug-In . SVG Version: 6.00 Build 0)  -->
<svg version="1.1" id="Слой_1" xmlns="http://www.w3.org/2000/svg" xmlns:xlink="http://www.w3.org/1999/xlink" x="0px" y="0px"
	 viewBox="0 0 593 38" style="enable-background:new 0 0 593 38;" xml:space="preserve">
<style type="text/css">
	path{fill:#f7f6f4;}
	.st0{fill:#BC4504;}
</style>
<g>
	<path class="st0" d="M15.3,2.8h5.6l12.6,32.5h-5.1l-3.7-9.9H10.8l-3.7,9.9H2.4L15.3,2.8z M23.5,22L18,7.4h-0.4L12.1,22H23.5z"/>
	<path class="st0" d="M38.4,2.8h11.4c2.9,0,5.1,0.2,6.7,0.5c1.6,0.3,2.8,1,3.5,1.9c0.8,0.9,1.1,2.2,1.1,3.9v5.6
		c0,1.9-0.8,3.4-2.4,4.5c-1.6,1-3.6,1.6-6,1.6l10.4,14.5h-6L48,21.4h-4.7v13.9h-4.8V2.8z M49.6,18.2c2.4,0,4.1-0.3,5.2-0.9
		c1-0.6,1.6-1.6,1.6-3.2V9.6c0-2.4-2.1-3.6-6.3-3.6h-6.8v12.2H49.6z"/>
	<path class="st0" d="M70,2.8h21.8v3.4h-17v10.6h15.3v3.4H74.9v11.6h17.5v3.4H70V2.8z"/>
	<path class="st0" d="M98.5,35v-4.1c3.9,0.8,7.3,1.3,10.2,1.3c2.5,0,4.3-0.3,5.4-0.8c1.1-0.6,1.7-1.6,1.7-3.1V24
		c0-1.4-0.4-2.4-1.2-2.9c-0.8-0.6-2.2-0.9-4.2-0.9h-3.8c-3.2,0-5.4-0.6-6.8-1.9c-1.3-1.3-2-3.2-2-5.9V9.9c0-1.8,0.4-3.2,1.2-4.3
		c0.8-1.1,2.1-1.9,4-2.4c1.9-0.5,4.4-0.8,7.6-0.8c2.2,0,5,0.2,8.4,0.6v3.6c-3.8-0.6-6.7-0.9-8.7-0.9c-3.1,0-5.1,0.3-6.1,0.9
		c-1,0.6-1.5,1.7-1.5,3.2v3.7c0,1.1,0.4,2,1.2,2.5c0.8,0.5,2.2,0.8,4.2,0.8h3.9c2.2,0,4,0.3,5.2,0.8s2.1,1.3,2.6,2.4
		c0.5,1.1,0.8,2.5,0.8,4.4v2.4c0,2.3-0.4,4.1-1.3,5.4c-0.8,1.3-2.2,2.3-3.9,2.9c-1.8,0.6-4.1,0.9-7,0.9
		C105.6,35.8,102.3,35.5,98.5,35z"/>
	<path d="M139,2.8h4.8v32.5H139V2.8z"/>
	<path d="M152.2,2.8h5.8l17.7,26.8V2.8h4.3v32.5h-5.9L156.5,8v27.3h-4.3V2.8z"/>
	<path d="M196.4,6.2h-11V2.8h26.8v3.4h-10.9v29h-4.9V6.2z"/>
	<path d="M217.6,2.8h21.8v3.4h-17v10.6h15.3v3.4h-15.3v11.6h17.5v3.4h-22.3V2.8z"/>
	<path d="M246.6,2.8H258c2.9,0,5.1,0.2,6.7,0.5c1.6,0.3,2.8,1,3.5,1.9c0.8,0.9,1.1,2.2,1.1,3.9v5.6c0,1.9-0.8,3.4-2.4,4.5
		c-1.6,1-3.6,1.6-6,1.6l10.4,14.5h-6l-9.3-13.9h-4.7v13.9h-4.8V2.8z M257.8,18.2c2.4,0,4.1-0.3,5.2-0.9c1-0.6,1.6-1.6,1.6-3.2V9.6
		c0-2.4-2.1-3.6-6.3-3.6h-6.8v12.2H257.8z"/>
	<path d="M278.2,2.8h5.8l17.7,26.8V2.8h4.3v32.5h-5.9L282.5,8v27.3h-4.3V2.8z"/>
	<path d="M323.8,2.8h5.6L342,35.3h-5l-3.7-9.9h-13.9l-3.7,9.9h-4.8L323.8,2.8z M332.1,22l-5.5-14.6h-0.5L320.6,22H332.1z"/>
	<path d="M355,6.2h-11V2.8h26.8v3.4h-11v29H355V6.2z"/>
	<path d="M376.2,2.8h4.8v32.5h-4.8V2.8z"/>
	<path d="M388.6,27V11.6c0-6.2,4.5-9.3,13.6-9.3c9.2,0,13.8,3.1,13.8,9.3V27c0,3.1-1.3,5.4-3.8,6.8c-2.5,1.4-5.8,2-9.9,2
		C393.1,35.8,388.6,32.8,388.6,27z M411.2,26.9V11.5c0-4-3-6-9-6c-2.9,0-5.1,0.4-6.7,1.3c-1.6,0.9-2.3,2.5-2.3,4.7v15.4
		c0,3.7,3,5.6,9,5.6C408.2,32.5,411.2,30.6,411.2,26.9z"/>
	<path d="M423.4,2.8h5.8l17.7,26.8V2.8h4.3v32.5h-5.9L427.7,8v27.3h-4.3V2.8z"/>
	<path d="M469,2.8h5.6l12.6,32.5h-5l-3.7-9.9h-13.9l-3.7,9.9h-4.8L469,2.8z M477.3,22l-5.5-14.6h-0.5L465.8,22H477.3z"/>
	<path d="M492.2,2.8h4.8v29.1h16v3.4h-20.8V2.8z"/>
	<path d="M528.8,27V11.6c0-6.2,4.5-9.3,13.6-9.3c9.2,0,13.8,3.1,13.8,9.3V27c0,3.1-1.3,5.4-3.8,6.8c-2.5,1.4-5.8,2-9.9,2
		C533.3,35.8,528.8,32.8,528.8,27z M551.4,26.9V11.5c0-4-3-6-9-6c-2.9,0-5.1,0.4-6.7,1.3c-1.6,0.9-2.3,2.5-2.3,4.7v15.4
		c0,3.7,3,5.6,9,5.6C548.4,32.5,551.4,30.6,551.4,26.9z"/>
	<path d="M571.6,35.4c-1.3-0.2-2.6-0.6-3.9-1.2c-1.3-0.6-2.4-1.5-3.1-2.8c-0.7-1.2-1.1-2.7-1.1-4.5V2.8h4.6v24.1
		c0,2,0.7,3.5,2.1,4.3c1.4,0.9,3.4,1.3,6,1.3c2.7,0,4.7-0.4,6-1.3c1.3-0.9,2-2.3,2-4.3V2.8h4.6V27c0,5.9-4.2,8.8-12.7,8.8
		C574.5,35.8,573,35.6,571.6,35.4z"/>
</g>
</svg>
